#!OML:ASF F:\VICON\USERDATA\INSTALL\rory3\rory3.ASF
:FULLY-SPECIFIED
:DEGREES
210
root 13.3194 17.8399 7.29492 -3.57345 0.621185 -1.75392
lowerback 10.6639 1.8324 3.36517
upperback 0.943531 2.88246 0.942081
thorax -4.87448 1.36179 -1.32946
lowerneck -22.0215 -7.14628 -13.5189
upperneck 27.8982 -8.77058 10.5494
head 14.4036 -3.82957 4.90397
rclavicle 3.32343e-014 -1.05356e-014
rhumerus -30.7657 -9.94852 -79.5546
rradius 36.8628
rwrist 2.69938
rhand -15.0269 9.05386
rfingers 7.12502
rthumb 11.1388 -20.6305
lclavicle 3.32343e-014 -1.05356e-014
lhumerus -36.6071 8.37007 82.6309
lradius 30.6603
lwrist -9.10524
lhand -16.2572 27.3766
lfingers 7.12502
lthumb 9.95206 57.1214
rfemur 0.926797 -1.65443 28.7213
rtibia 23.9514
rfoot -16.9586 -3.08224
rtoes 11.7193
lfemur -18.6741 -9.06487 -12.1174
ltibia 23.8976
lfoot -4.92348 -1.87752
ltoes -9.86541
211
root 13.3341 17.8359 7.40631 -3.6036 0.146625 -1.62711
lowerback 10.3663 1.96944 3.3769
upperback 1.09045 3.04313 0.840996
thorax -4.54101 1.44837 -1.44744
lowerneck -22.1444 -7.12271 -13.5098
upperneck 27.8306 -8.75361 10.6605
head 14.4039 -3.80258 4.94915
rclavicle 4.71492e-014 -6.75868e-015
rhumerus -30.5491 -9.83361 -79.7218
rradius 37.0185
rwrist 2.58711
rhand -15.038 8.73193
rfingers 7.12502
rthumb 11.1281 -20.953
lclavicle 4.71492e-014 -6.75868e-015
lhumerus -36.4448 8.39675 82.635
lradius 30.4394
lwrist -8.20523
lhand -15.6797 29.6343
lfingers 7.12502
lthumb 10.5091 59.3516
rfemur 1.43344 -1.39197 28.5056
rtibia 23.8933
rfoot -17.2905 -2.81714
rtoes 12.6655
lfemur -18.4666 -9.99811 -11.9341
ltibia 22.3665
lfoot -5.82306 -3.46204
ltoes -10.5991
212
root 13.341 17.8077 7.49519 -3.58541 0.0473473 -1.50635
lowerback 10.3043 2.005 3.28775
upperback 1.11155 3.07368 0.774378
thorax -4.48383 1.46599 -1.46773
lowerneck -22.2157 -7.14084 -13.5635
upperneck 27.8006 -8.77884 10.7535
head 14.4191 -3.80474 4.99081
rclavicle 8.85834e-015 -7.95139e-015
rhumerus -30.4576 -9.83778 -79.7638
rradius 37.1042
rwrist 2.64314
rhand -15.0979 8.89361
rfingers 7.12502
rthumb 11.0703 -20.7944
lclavicle 8.85834e-015 -7.95139e-015
lhumerus -36.412 8.26969 82.7009
lradius 30.387
lwrist -7.60807
lhand -15.7305 30.5066
lfingers 7.12502
lthumb 10.4601 60.2264
rfemur 1.71195 -1.28461 28.3678
rtibia 24.0032
rfoot -17.4832 -2.87458
rtoes 11.7974
lfemur -17.2308 -8.23765 -12.5921
ltibia 21.0378
lfoot -9.74899 -5.47147
ltoes -31.4052
213
root 13.3301 17.8297 7.56459 -3.5892 0.46435 -1.61128
lowerback 10.7582 1.87812 3.2478
upperback 0.933508 2.92573 0.796435
thorax -4.93361 1.38283 -1.42577
lowerneck -22.182 -7.17504 -13.5319
upperneck 27.859 -8.85077 10.7477
head 14.447 -3.83442 4.97097
rclavicle 1.27719e-014 4.77083e-015
rhumerus -30.6496 -9.92826 -79.7449
rradius 37.2712
rwrist 2.67566
rhand -15.0903 9.28108
rfingers 7.12502
rthumb 11.0776 -20.4066
lclavicle 1.27719e-014 4.77083e-015
lhumerus -36.4449 8.05539 82.7288
lradius 30.2732
lwrist -7.482
lhand -16.0414 30.3155
lfingers 7.12502
lthumb 10.1602 60.0502
rfemur 2.08786 -1.21708 28.617
rtibia 23.8154
rfoot -17.3758 -3.48924
rtoes 10.1963
lfemur -18.7609 -10.1085 -11.7191
ltibia 19.9444
lfoot -7.14121 -9.10512
ltoes -14.0989
214
root 13.339 17.7687 7.65384 -3.65121 0.316604 -1.67226
lowerback 10.9183 1.93628 3.28015
upperback 0.872247 3.01415 0.777175
thorax -5.0806 1.42179 -1.48494
lowerneck -22.0534 -7.1869 -13.46
upperneck 27.873 -8.92554 10.7744
head 14.4349 -3.85919 4.95656
rclavicle 1.77167e-014 1.45113e-014
rhumerus -30.8389 -9.87934 -79.821
rradius 37.5046
rwrist 2.45072
rhand -15.2213 9.46589
rfingers 7.12502
rthumb 10.9513 -20.2285
lclavicle 1.77167e-014 1.45113e-014
lhumerus -36.4526 8.0123 82.6746
lradius 30.2076
lwrist -7.52031
lhand -16.1277 30.3191
lfingers 7.12502
lthumb 10.0769 60.0578
rfemur 2.44736 -0.941208 28.7597
rtibia 23.8011
rfoot -17.6213 -3.79193
rtoes 9.79613
lfemur -18.6558 -9.88033 -11.5886
ltibia 19.055
lfoot -7.55148 -11.6476
ltoes -15.488
215
root 13.3494 17.7899 7.76647 -3.67157 -0.234187 -1.51728
lowerback 10.5863 2.11424 3.23171
upperback 1.00037 3.22265 0.690302
thorax -4.74862 1.53314 -1.55982
lowerneck -21.9269 -7.17166 -13.5208
upperneck 27.6773 -8.93965 10.952
head 14.3391 -3.85133 5.03242
rclavicle -5.77718e-015 1.2921e-014
rhumerus -30.8677 -9.69126 -79.9288
rradius 37.7514
rwrist 2.13383
rhand -15.3742 9.55412
rfingers 7.12502
rthumb 10.8038 -20.148
lclavicle -5.77718e-015 1.2921e-014
lhumerus -36.3489 8.24509 82.5227
lradius 30.277
lwrist -8.15237
lhand -16.2533 29.5674
lfingers 7.12502
lthumb 9.95575 59.312
rfemur 2.93305 -0.607004 28.5677
rtibia 23.643
rfoot -17.9391 -3.71344
rtoes 9.63817
lfemur -18.4006 -9.51144 -11.7482
ltibia 17.8242
lfoot -7.01673 -14.0634
ltoes -14.5568
216
root 13.3432 17.7855 7.83945 -3.59743 0.0766423 -1.33451
lowerback 10.6335 2.01611 2.96898
upperback 1.00572 3.05949 0.615844
thorax -4.78653 1.45652 -1.46963
lowerneck -21.9324 -7.16571 -13.5988
upperneck 27.5418 -8.96544 11.1813
head 14.3046 -3.84005 5.13217
rclavicle -1.04238e-014 -2.98177e-015
rhumerus -30.762 -9.73093 -79.996
rradius 37.8379
rwrist 2.10364
rhand -15.3557 9.25855
rfingers 7.12502
rthumb 10.8217 -20.4427
lclavicle -1.04238e-014 -2.98177e-015
lhumerus -36.1572 8.52078 82.2873
lradius 30.2781
lwrist -9.15689
lhand -17.1668 26.7413
lfingers 7.12502
lthumb 9.07439 56.5261
rfemur 3.00596 -0.478657 28.5111
rtibia 23.9195
rfoot -18.2519 -4.30604
rtoes 9.18642
lfemur -18.5533 -8.89726 -12.0651
ltibia 16.9493
lfoot -5.44022 -17.1913
ltoes -13.0306
217
root 13.3582 17.7604 7.94446 -3.77447 -0.362138 -1.06144
lowerback 10.5941 2.15876 2.7884
upperback 1.1106 3.2167 0.479375
thorax -4.64959 1.54003 -1.52791
lowerneck -21.8927 -7.14704 -13.5514
upperneck 27.4908 -8.98711 11.27
head 14.2803 -3.83379 5.15549
rclavicle 1.30701e-014 1.59028e-014
rhumerus -30.6809 -10.0177 -80.0411
rradius 37.8027
rwrist 2.321
rhand -15.1371 8.86225
rfingers 7.12502
rthumb 11.0325 -20.8278
lclavicle 1.30701e-014 1.59028e-014
lhumerus -36.0502 8.69028 82.0584
lradius 30.2375
lwrist -9.98015
lhand -17.3494 24.7993
lfingers 7.12502
lthumb 8.89818 54.5916
rfemur 3.58673 -0.0653474 28.2127
rtibia 23.9636
rfoot -18.531 -4.36317
rtoes 9.06029
lfemur -18.2496 -8.70949 -12.3819
ltibia 16.4847
lfoot -0.868867 -18.2437
ltoes -3.87059
218
root 13.3807 17.7412 8.05578 -3.78455 -1.0231 -0.785247
lowerback 10.3138 2.36553 2.68026
upperback 1.16215 3.46142 0.338214
thorax -4.42628 1.66668 -1.63225
lowerneck -21.7974 -7.11346 -13.4708
upperneck 27.4567 -8.97797 11.2685
head 14.2384 -3.82434 5.14222
rclavicle 4.26145e-015 3.97569e-016
rhumerus -30.769 -10.2841 -80.087
rradius 37.874
rwrist 2.50831
rhand -14.9648 8.999
rfingers 7.12502
rthumb 11.1987 -20.6821
lclavicle 4.26145e-015 3.97569e-016
lhumerus -36.0194 8.75206 81.9597
lradius 30.2156
lwrist -10.2076
lhand -17.0635 25.0143
lfingers 7.12502
lthumb 9.17405 54.7947
rfemur 3.85195 0.377196 27.8372
rtibia 24.2614
rfoot -18.9056 -4.22763
rtoes 8.40906
lfemur -17.9512 -8.85885 -12.5925
ltibia 16.0711
lfoot -0.551556 -19.2128
ltoes -4.5885
219
root 13.3979 17.729 8.15779 -3.79023 -1.49401 -0.513755
lowerback 10.1483 2.48333 2.51704
upperback 1.20963 3.58809 0.224046
thorax -4.28148 1.73454 -1.66623
lowerneck -21.8667 -7.0942 -13.4191
upperneck 27.5544 -8.96207 11.2461
head 14.2887 -3.81339 5.13096
rclavicle 2.045e-014 5.1684e-015
rhumerus -30.8299 -10.4259 -80.1366
rradius 37.9433
rwrist 2.59254
rhand -14.8914 9.32145
rfingers 7.12502
rthumb 11.2695 -20.3558
lclavicle 2.045e-014 5.1684e-015
lhumerus -35.9631 8.67321 82.0058
lradius 30.1465
lwrist -9.42145
lhand -17.0143 26.5796
lfingers 7.12502
lthumb 9.22151 56.358
rfemur 4.06006 0.881516 27.516
rtibia 24.6443
rfoot -19.3959 -4.19779
rtoes 8.65334
lfemur -17.6965 -9.06609 -12.8133
ltibia 15.8616
lfoot -0.206935 -20.053
ltoes -5.86211
220
root 13.4105 17.7105 8.25075 -3.83365 -1.76186 -0.281653
lowerback 10.1338 2.54062 2.37208
upperback 1.26299 3.64089 0.100313
thorax -4.21618 1.76386 -1.71797
lowerneck -22.0174 -7.10905 -13.3608
upperneck 27.6577 -8.99978 11.2555
head 14.3695 -3.818 5.12061
rclavicle 1.93504e-014 -1.86858e-014
rhumerus -30.8347 -10.5396 -80.2093
rradius 38.0002
rwrist 2.59269
rhand -14.8785 9.32972
rfingers 7.12502
rthumb 11.282 -20.3469
lclavicle 1.93504e-014 -1.86858e-014
lhumerus -35.9011 8.30924 82.1403
lradius 30.1481
lwrist -8.36033
lhand -16.3281 29.3955
lfingers 7.12502
lthumb 9.88362 59.1435
rfemur 4.36752 1.50786 27.3348
rtibia 25.0938
rfoot -19.8899 -4.43897
rtoes 9.24382
lfemur -17.4979 -9.30405 -13.0082
ltibia 15.84
lfoot 0.617104 -20.7857
ltoes -4.6671
221
root 13.4267 17.6867 8.34427 -3.88263 -2.05033 -0.0316702
lowerback 10.1712 2.59704 2.24192
upperback 1.28048 3.69571 -0.035702
thorax -4.21539 1.79232 -1.79495
lowerneck -22.0714 -7.088 -13.2925
upperneck 27.6254 -8.99839 11.2948
head 14.3651 -3.80323 5.1239
rclavicle -5.23176e-014 -7.45443e-015
rhumerus -30.9231 -10.487 -80.3393
rradius 38.1487
rwrist 2.52422
rhand -14.9181 9.06364
rfingers 7.12502
rthumb 11.2437 -20.615
lclavicle -5.23176e-014 -7.45443e-015
lhumerus -35.9338 8.02366 82.1695
lradius 30.2766
lwrist -8.05938
lhand -15.744 30.8007
lfingers 7.12502
lthumb 10.4471 60.5211
rfemur 4.57961 1.9768 27.1202
rtibia 25.6473
rfoot -20.166 -4.82544
rtoes 8.03954
lfemur -17.2836 -9.79589 -13.1886
ltibia 15.9526
lfoot 1.38143 -21.1175
ltoes -3.23305
222
root 13.4435 17.6579 8.43885 -3.94293 -2.4114 0.293945
lowerback 10.1327 2.6669 1.98114
upperback 1.34161 3.75306 -0.140031
thorax -4.13733 1.826 -1.76077
lowerneck -22.1019 -7.05917 -13.2849
upperneck 27.5319 -8.95027 11.3085
head 14.3232 -3.77879 5.13359
rclavicle 1.76297e-014 1.10325e-014
rhumerus -31.0239 -10.1777 -80.5031
rradius 38.4168
rwrist 2.30511
rhand -14.9881 8.70819
rfingers 7.12502
rthumb 11.1763 -20.9742
lclavicle 1.76297e-014 1.10325e-014
lhumerus -35.8947 7.99794 82.1617
lradius 30.3798
lwrist -8.06356
lhand -15.9094 30.5603
lfingers 7.12502
lthumb 10.2876 60.2887
rfemur 4.56894 2.35197 26.8125
rtibia 26.3349
rfoot -20.471 -5.24401
rtoes 6.81727
lfemur -16.9921 -10.4839 -13.4149
ltibia 16.1355
lfoot 2.09081 -20.9851
ltoes -0.986641
